<svg width="31" height="31" viewBox="0 0 31 31" fill="none" xmlns="http://www.w3.org/2000/svg">
<path d="M8.88589 5.1598C11.6963 4.45703 13.5415 5.33633 14.6651 6.45988C14.7875 6.58226 14.9006 6.7068 15.0051 6.83153C15.1278 6.97802 15.3091 7.06265 15.5002 7.06265C15.6913 7.06265 15.8726 6.97802 15.9953 6.83153C16.0998 6.70679 16.2129 6.58225 16.3353 6.45988C17.4589 5.33629 19.3043 4.45705 22.1153 5.1598C24.9229 5.86173 27.0419 7.97284 27.7491 10.6252C28.461 13.2953 27.7249 16.433 24.9982 19.1597C21.9813 22.1766 19.4061 24.7531 17.7854 26.3748C16.5244 27.6366 14.4827 27.6372 13.2211 26.3759L6.00388 19.1597C3.27608 16.4324 2.53997 13.2946 3.25217 10.6246C3.9596 7.9724 6.07894 5.86172 8.88589 5.1598Z" fill="#F2F2F2"/>
</svg>
