<svg width="32" height="31" viewBox="0 0 32 31" fill="none" xmlns="http://www.w3.org/2000/svg">
<path d="M17.0159 3.03837C16.7669 2.75451 16.4034 2.58866 16.0189 2.58338C15.6344 2.57811 15.2662 2.73393 15.009 3.01084L3.00896 15.9275C2.65672 16.3067 2.5678 16.8511 2.78202 17.3171C2.99624 17.7831 3.47347 18.0833 4.00002 18.0833H6.66669V25.8333C6.66669 26.5466 7.26364 27.1249 8.00002 27.1249H13.3334V20.6666H18.6667V27.1249H24C24.7364 27.1249 25.3334 26.5466 25.3334 25.8333V18.0833H27.3334C27.8531 18.0833 28.3254 17.7907 28.5436 17.3337C28.7617 16.8768 28.6859 16.3387 28.3493 15.955L17.0159 3.03837Z" fill="#F2F2F2"/>
</svg>
